<?xml version="1.0" encoding="utf-8"?>
<!-- Generator: Adobe Illustrator 27.0.0, SVG Export Plug-In . SVG Version: 6.00 Build 0)  -->
<svg version="1.1" id="Layer_1" xmlns="http://www.w3.org/2000/svg" xmlns:xlink="http://www.w3.org/1999/xlink" x="0px" y="0px"
	 viewBox="0 0 570 152" style="enable-background:new 0 0 570 152;" xml:space="preserve">
<style type="text/css">
	.st0{fill:#ED2517;}
</style>
<g>
	<path class="st0" d="M79.46,0c-7.77,0-16.08,0-23.84,0c-0.05,32.42-0.09,53.42-0.14,85.85C45.23,54.21,34.98,33.26,24.69,0
		C15.97,0,10.52,0,1.8,0c0,50.67,0,101.33,0,152c7.73-1.1,16-2.15,23.74-3.16c0.02-31.77,0.04-51.3,0.07-83.07
		c10.65,31.27,17.19,49.72,27.81,79.43c8.32-0.95,17.47-2.12,25.8-2.97C79.3,94.82,79.38,47.41,79.46,0"/>
	<path class="st0" d="M168.52,0c-22.11,0-43.95,0-66.06,0c-0.09,46.74-0.18,93.49-0.27,140.23c22.1-2.01,44.22-3.65,66.35-4.93
		c0.01-6.83,0.02-16.66,0.04-23.49c-14.39,0.88-28.17,1.81-42.51,2.77c0.02-12.57,0.05-22.96,0.07-35.53
		c10.48-0.18,21.56-0.02,32.26-0.2c0.01-6.87,0.03-16.73,0.04-23.6c-10.61,0.19-21.82,0.21-32.26,0.41
		c0.02-12.57,0.05-19.46,0.07-32.03c6.57-0.08,13.01-0.09,19.43-0.09c1.13,0,2.26,0,3.38,0c1.12,0,2.25,0,3.37,0
		c5.36,0,10.74-0.01,16.21-0.05C168.69,16.65,168.51,6.83,168.52,0"/>
	<path class="st0" d="M257.56,0.11c-24.25,0-49.31,0-73.55,0c-0.01,6.79-0.02,16.57-0.03,23.36c1.06-0.01,2.11-0.01,3.17-0.01
		c3.2,0,6.39,0.03,9.59,0.06c3.19,0.03,6.39,0.06,9.58,0.06c0.82,0,1.64,0,2.46-0.01c-0.05,37.68-0.1,72.11-0.15,109.79
		c7.78-0.29,16.11-0.53,23.89-0.73c0.04-37.48,0.07-71.69,0.11-109.17c8.22-0.03,16.72-0.06,24.94-0.07
		C257.55,16.72,257.56,6.78,257.56,0.11"/>
	<path class="st0" d="M339.36,0c-22.11,0-44.22,0-66.33,0c-0.01,44-0.01,88-0.02,132c2.56-0.01,5.16-0.01,7.76-0.01
		c5.3,0,10.65,0.02,15.87,0.06c-0.01-18.67-0.01-35.71-0.02-54.39c1.3,0.01,2.62,0.01,3.94,0.01c3.08,0,6.22-0.01,9.36-0.03
		c3.15-0.01,6.31-0.03,9.44-0.03c3.23,0,6.43,0.01,9.55,0.06c-0.01-6.69-0.01-16.65-0.02-23.35c-2.95-0.03-5.97-0.04-9.02-0.04
		c-3.26,0-6.56,0.01-9.85,0.02c-3.28,0.01-6.55,0.02-9.76,0.02c-1.23,0-2.45,0-3.66-0.01c0-12-0.01-18.78-0.01-30.78
		c2.59,0,5.18,0.01,7.76,0.01c2.62,0,5.23,0,7.83,0c2.63,0,5.26,0,7.89,0c6.41,0,12.82,0.01,19.29,0.04
		C339.38,16.87,339.37,6.71,339.36,0"/>
	<path class="st0" d="M354.84,0.11c0.06,44.42-0.15,88.85-0.1,133.27c21.21,0.79,43.49,1.65,64.67,3.11
		c-0.01-6.83-0.03-16.66-0.04-23.49c-13.41-0.79-27.36-1.73-40.78-2.29c-0.06-38.04,0.15-72.55,0.09-110.59
		C370.92,0.11,362.61,0.11,354.84,0.11"/>
	<path class="st0" d="M438.98,0.11c0.09,45.94,0.18,91.88,0.27,137.82c7.77,0.6,15.81,1.24,23.57,1.93
		c0.03-46.55,0.09-93.17,0-139.76C455.06,0.11,446.75,0.11,438.98,0.11"/>
	<path class="st0" d="M483.27,0.11c9.54,23.23,18.26,46.52,27.94,71.19c-10.06,23.69-20.31,47.23-30.36,69.96
		c8.33,0.82,16.94,2.02,25.26,2.95c5.97-14.64,11.4-25.91,17.37-40.94c5.97,16.02,11.39,28.39,17.34,44.92
		c8.31,1.08,19.08,2.62,27.37,3.8c-10.06-26.89-21.06-54.88-31.17-80.29c10.07-23.86,20.35-46.64,30.81-71.59
		c-8.59,0-17.45,0-26.04,0c-6.46,15.42-10.9,25.33-17.09,40.01c-5.77-15.27-9.63-25.16-15.41-40.01
		C500.72,0.11,491.86,0.11,483.27,0.11"/>
</g>
</svg>
