<?xml version="1.0" encoding="utf-8"?>
<!-- Generator: Adobe Illustrator 27.0.0, SVG Export Plug-In . SVG Version: 6.00 Build 0)  -->
<svg version="1.1" id="Selfmade_by_NICF-Nettie" xmlns="http://www.w3.org/2000/svg" xmlns:xlink="http://www.w3.org/1999/xlink"
	 x="0px" y="0px" viewBox="0 0 728.67 171.33" style="enable-background:new 0 0 728.67 171.33;" xml:space="preserve">
<g id="Contact:_crazycovers.net_1_">
</g>
<g id="The_Crown">
	<g>
		<path d="M228.07,157.52c-4.4-2.8-7.56-6.79-10.45-10.93c-7.14-10.24-14.08-20.61-21.1-30.94c-0.15-0.22-0.15-0.53-0.24-0.9
			c1.51-0.51,2.99-0.9,4.38-1.49c7.3-3.09,13-7.8,15.74-15.45c3.4-9.49-1.19-20.7-10.2-25.37c-5.83-3.02-12.07-4.07-18.5-4.15
			c-12.77-0.16-25.55-0.17-38.32-0.22c-0.42,0-0.84,0.23-1.25,0.35c-0.01,0.18-0.03,0.35-0.04,0.53c0.48,0.16,0.96,0.4,1.46,0.46
			c1.42,0.18,2.87,0.21,4.28,0.45c3.57,0.61,6.16,2.53,7.13,6.04c0.45,1.62,0.48,3.39,0.48,5.1c-0.02,13.08-0.1,26.17-0.14,39.25
			c-0.04,10-0.05,19.99-0.1,29.99c-0.02,4.68-2.42,8.1-6.91,9.54c-1.62,0.52-3.41,0.5-5.12,0.74c-0.48,0.07-0.95,0.19-1.43,0.29
			c-0.05,0.1-0.08,0.2-0.1,0.29c0,0.09,0,0.18-0.01,0.26c0,0.01,0,0.01,0,0.02c0.02,0.03,0.05,0.06,0.09,0.09
			c0.53,0.11,1.05,0.28,1.58,0.28c2.23-0.01,4.46-0.15,6.68-0.13c9.01,0.09,18.02,0.22,27.03,0.35c0.7,0.01,1.22-0.09,1.21-0.86
			c-0.05-0.14-0.12-0.27-0.22-0.4c-0.33-0.05-0.65-0.09-0.97-0.13c-1.62-0.17-3.27-0.21-4.86-0.52c-3-0.6-5.36-2.23-6.35-5.16
			c-0.57-1.69-0.81-3.55-0.81-5.34c-0.03-10.44,0.06-20.87,0.12-31.31c0-0.37,0.13-0.74,0.22-1.15c0.43-0.07,0.76-0.18,1.09-0.17
			c4.31,0.03,8.62,0.18,12.92,0.07c1.71-0.05,2.6,0.62,3.43,1.94c5.06,8.02,9.98,16.14,15.34,23.95c4.27,6.23,9.12,12.08,13.7,18.1
			c0.68,0.9,1.52,1.15,2.69,1.13c5.19-0.06,10.39,0.01,15.59,0.04c0.63,0,1.27,0.07,2.07,0.11c0.06-0.48,0.11-0.86,0.17-1.27
			c-0.45-0.11-0.73-0.23-1.02-0.25C233.9,160.63,230.91,159.33,228.07,157.52z M172.59,114.26c-0.42-0.07-0.83-0.24-1.22-0.35V71.27
			c1.16-0.18,2.12-0.36,3.08-0.47c6.45-0.77,12.82-0.78,19.04,1.5c8.33,3.05,12.62,9.04,13.45,17.65
			c1.12,11.55-7.57,20.72-16.46,23.46C184.54,115.24,178.62,115.31,172.59,114.26z M569.23,70.13c-7.06-0.04-14.12-0.05-21.17-0.06
			c-0.54,0-1.08,0.12-1.62,0.18c-0.01,1.33,0.81,1.23,1.52,1.33c1.83,0.27,3.71,0.43,5.48,0.93c2.16,0.62,3.27,2.22,3.19,4.39
			c-0.05,1.4-0.23,2.85-0.65,4.19c-0.85,2.71-1.87,5.36-2.86,8.03c-4.65,12.59-9.31,25.17-13.96,37.76
			c-3.09,8.36-6.17,16.72-9.27,25.08c-0.09,0.24-0.35,0.41-0.66,0.75c-0.29-0.41-0.57-0.68-0.7-1c-1-2.39-1.95-4.81-2.97-7.19
			c-4.4-10.32-8.81-20.63-13.26-30.92c-0.52-1.19-0.46-2.18,0.11-3.33c2.27-4.61,4.43-9.28,6.67-13.91
			c2.82-5.82,5.6-11.66,8.53-17.42c2.13-4.2,5.25-7.18,10.33-7.42c0.44-0.02,0.85-0.54,1.28-0.83c-0.07-0.16-0.14-0.33-0.2-0.49
			c-0.41-0.06-0.82-0.18-1.23-0.19c-7.65-0.04-15.3-0.08-22.95-0.09c-0.45,0-0.9,0.25-1.35,0.38c0,0.19-0.01,0.37-0.01,0.56
			c0.5,0.15,0.99,0.37,1.49,0.43c1.02,0.12,2.06,0.12,3.08,0.24c3.11,0.34,4.83,2.06,4.58,5.15c-0.19,2.3-0.65,4.7-1.57,6.8
			c-3.44,7.85-7.12,15.59-10.72,23.37c-0.11,0.23-0.39,0.37-0.68,0.65c-0.25-0.35-0.5-0.58-0.61-0.87
			c-2.62-6.86-5.25-13.72-7.82-20.6c-0.99-2.66-2.05-5.32-2.66-8.08c-0.7-3.19,1.18-5.64,4.4-6.35c0.72-0.16,1.47-0.15,2.18-0.31
			c0.48-0.11,0.93-0.37,1.4-0.56c-0.03-0.2-0.06-0.4-0.08-0.6c-0.52-0.09-1.03-0.24-1.55-0.25c-9.37-0.05-18.74-0.09-28.1-0.11
			c-0.5,0-1,0.18-1.5,0.27c0,0.22-0.01,0.43-0.01,0.65c0.54,0.13,1.09,0.37,1.63,0.37c4.99-0.05,8.35,2.25,10.27,6.84
			c2.62,6.23,5.34,12.42,7.99,18.63c3,7.03,6,14.05,8.92,21.11c0.27,0.66,0.25,1.66-0.06,2.31c-3.79,8.18-7.65,16.32-11.5,24.47
			c-1.21,2.55-2.43,5.1-3.85,8.06c-0.41-0.71-0.66-1.05-0.81-1.43c-3.33-8.43-6.63-16.86-9.97-25.28
			c-5.48-13.79-11.04-27.56-16.44-41.38c-0.97-2.47-1.63-5.13-1.96-7.77c-0.3-2.39,1.38-4.35,3.73-4.98
			c1.27-0.34,2.6-0.43,3.91-0.64c0.5-0.08,1-0.16,1.49-0.24c0.04-0.13,0.09-0.27,0.13-0.4c-0.33-0.24-0.64-0.66-0.99-0.69
			c-0.72-0.07-1.47,0.1-2.2,0.1c-9.42-0.07-18.84-0.17-28.25-0.22c-0.54,0-1.09,0.28-1.63,0.43c0.03,0.21,0.05,0.42,0.08,0.63
			c0.58,0.11,1.16,0.21,1.74,0.34c1.66,0.37,3.41,0.56,4.97,1.18c3.69,1.46,5.35,4.77,6.72,8.16c5.84,14.39,11.61,28.8,17.41,43.2
			c4.48,11.13,8.95,22.27,13.43,33.4c1.15,2.85,2.31,5.7,3.42,8.43c1.84,0.58,2.36,0.38,3.1-1.17c1.84-3.9,3.65-7.81,5.48-11.71
			c4.48-9.53,8.96-19.06,13.45-28.58c0.14-0.31,0.43-0.55,0.86-1.07c0.42,0.99,0.71,1.68,1.02,2.37
			c5.8,13.13,11.61,26.25,17.38,39.39c0.24,0.55,0.53,0.94,0.92,1.13c0.31,0.15,0.7,0.14,0.76,0.14c0.33,0,0.59-0.07,0.75-0.13
			c0.03-0.03,0.06-0.07,0.09-0.1c0.31-0.66,0.7-1.4,1.01-2.17c3.77-9.62,7.52-19.25,11.3-28.87c5.87-14.95,11.74-29.91,17.64-44.85
			c1.67-4.24,3.32-8.49,5.24-12.62c1.35-2.9,3.52-5.06,7.01-5.4c0.41-0.04,0.78-0.4,1.17-0.61c0-0.17,0-0.34,0-0.51
			C570.19,70.41,569.71,70.13,569.23,70.13z M355.88,68.97c-13.23-4.15-26.32-3.31-38.69,2.95c-17.74,8.98-26.87,23.74-27.73,40.4
			c-0.1,13.62,3.58,24.51,10.23,32.94c14.64,18.56,38.82,24.04,59.3,16.06c16.31-6.36,26.76-18.29,30.74-35.57
			c2.05-8.89,1.48-17.68-1.66-26.18C382.38,84.14,371.54,73.89,355.88,68.97z M373.43,139.2c-4.38,8.78-10.72,15.74-19.71,20.04
			c-10.8,5.16-21.22,4.06-31.13-2.26c-8.77-5.6-14.56-13.61-18.11-23.35c-2.12-5.82-3.23-11.79-3.19-20.9
			c0.29-10.91,4.68-23.1,14.56-33.02c4.74-4.77,10.31-8.26,16.88-9.92c8.17-2.06,15.99-1,23.23,3.26
			c12.95,7.62,19.79,19.39,22.37,33.9C380.33,118.23,378.52,129.01,373.43,139.2z M693.92,71.07l-0.15,0.58
			c0.49,0.21,0.97,0.54,1.48,0.6c1.51,0.18,3.05,0.17,4.55,0.39c5.78,0.85,9.31,4.28,10.13,10.03c0.38,2.66,0.59,5.36,0.59,8.04
			c-0.02,19.16-0.11,38.31-0.19,57.47c0,0.21-0.16,0.42-0.38,0.96c-0.85-0.92-1.55-1.68-2.26-2.44
			c-8.06-8.72-16.15-17.41-24.17-26.16c-8.45-9.23-16.89-18.46-25.21-27.8c-6.13-6.88-12.1-13.91-18.07-20.92
			c-0.76-0.89-1.44-1.21-2.6-1.2c-5.94,0.02-11.88-0.08-17.82-0.11c-0.46,0-0.91,0.18-1.37,0.27c-0.02,0.2-0.03,0.41-0.05,0.61
			c0.53,0.16,1.04,0.39,1.58,0.47c1.55,0.23,3.14,0.27,4.67,0.62c4.75,1.08,8.26,3.73,9.61,8.53c0.65,2.33,1.03,4.82,1.03,7.24
			c-0.03,19.45-0.18,38.91-0.29,58.36c-0.02,3.21-0.45,6.36-1.59,9.37c-1.51,3.98-4.28,6.37-8.65,6.66
			c-1.13,0.08-2.26,0.02-3.38,0.14c-0.44,0.05-0.86,0.39-1.28,0.6c0.06,0.22,0.11,0.43,0.17,0.65h34.14c0-0.01,0.01-0.01,0.01-0.02
			c0.06-0.16,0.1-0.32,0.09-0.48c0,0,0,0,0,0c-0.41-0.22-0.8-0.52-1.23-0.57c-1.61-0.19-3.25-0.17-4.84-0.42
			c-4.26-0.69-7.59-2.81-8.62-7.16c-0.84-3.54-1.43-7.24-1.45-10.87c-0.08-18.62,0.07-37.24,0.14-55.86c0-1.06,0-2.12,0-3.68
			c0.66,0.56,1.01,0.8,1.29,1.1c8.48,9.4,16.94,18.8,25.42,28.2c12.03,13.33,24.07,26.65,36.1,39.97c3.25,3.6,6.49,7.22,9.78,10.79
			c0.26,0.29,0.64,0.48,1.07,0.7c0.04,0.01,0.08,0.02,0.11,0.03c0.19,0,0.38,0,0.57-0.03c0.2-0.03,0.29-0.13,0.37-0.25
			c0.05-0.38,0.08-0.64,0.08-0.88c0.15-25.73,0.26-51.45,0.47-77.18c0.02-2.67,0.4-5.38,0.99-7.99c0.96-4.26,3.88-6.57,8.24-6.93
			c1.16-0.1,2.33-0.12,3.61-0.18c0.03-0.46,0.05-0.81,0.08-1.23H693.92z M21.06,83.59c7.38-9.47,17.35-14.32,29.15-15.54
			c6.73-0.69,13.35-0.05,19.61,2.72c7.97,3.52,12.6,9.7,14.31,18.16c0.15,0.73,0.21,1.48,1.56,1.34
			c-0.37-5.86-0.74-11.67-1.11-17.58c-2.18-0.76-4.25-1.52-6.34-2.21c-7.23-2.39-14.5-4.59-22.18-4.97
			c-15.05-0.73-28.25,3.77-39.32,14.06C9.48,86.32,4.8,94.54,2.87,104.29c-1.34,6.79-1.03,13.57,0.23,20.31
			c1.79,9.57,5.77,18.09,12.75,25.02c7.5,7.45,16.67,11.5,27.03,13.21c13.02,2.15,25.36-0.46,37.46-5.04
			c1.82-0.69,2.46-1.89,2.72-3.73c0.69-4.89,1.6-9.76,2.39-14.64c0.07-0.44-0.07-0.92-0.11-1.38c-0.2-0.03-0.41-0.05-0.61-0.08
			c-0.21,0.45-0.51,0.88-0.63,1.35c-1.68,7.01-5.7,12.46-11.59,16.43c-8.89,6-18.6,6.41-28.5,3.18
			c-10.28-3.35-18.18-9.91-23.87-19.07c-6.86-11.05-8.88-23.09-7.17-35.86C13.99,96.53,16.39,89.58,21.06,83.59z M337.42,28.18
			c-0.25-0.02-0.43-0.05-0.6-0.05c-1.65-0.02-2.27-0.65-2.27-2.3c0.01-2.44,0.02-4.89,0.03-7.33c0-0.12,0.04-0.25,0.06-0.38h12.79
			c0.04,0.18,0.08,0.27,0.08,0.37c-0.01,2.61,0,5.22-0.05,7.83c-0.02,1.17-0.72,1.81-1.89,1.87c-0.31,0.02-0.61,0-0.99,0v0.81h8.92
			c-0.01-0.25-0.03-0.48-0.04-0.78c-0.35,0-0.63,0.02-0.91,0c-1.3-0.09-1.91-0.72-1.95-2.02c-0.01-0.21,0-0.43,0-0.64
			c0.02-2.2,0.04-4.39,0.05-6.59c0.02-3.06,0.02-6.11,0.04-9.17c0.01-1.56,0.64-2.18,2.21-2.22c0.19-0.01,0.39,0,0.63,0V6.74h-8.84
			V7.5c0.39,0.03,0.73,0.04,1.07,0.08c1.16,0.14,1.7,0.71,1.78,1.87c0.01,0.13,0.01,0.26,0.01,0.4c-0.01,2.16-0.01,4.33-0.02,6.49
			c0,0.16-0.05,0.31-0.06,0.42h-12.79c-0.04-0.2-0.08-0.29-0.08-0.38c0.02-2.23,0.03-4.46,0.06-6.69c0.02-1.5,0.65-2.13,2.15-2.17
			c0.22-0.01,0.45-0.02,0.7-0.04V6.68h-8.9c0.01,0.27,0.03,0.49,0.04,0.74c0.4,0.03,0.74,0.03,1.08,0.07
			c1.13,0.13,1.68,0.71,1.76,1.83c0.01,0.18,0.01,0.36,0.01,0.54c-0.01,3.24-0.03,6.47-0.04,9.71c-0.01,2.15-0.01,4.29-0.04,6.44
			c-0.02,1.37-0.63,1.98-2,2.07c-0.29,0.02-0.58,0.03-0.9,0.04v0.8h8.93C337.44,28.67,337.43,28.44,337.42,28.18z M369.89,25.42
			c0,0.36-0.02,0.73-0.05,1.09c-0.08,1.04-0.59,1.6-1.62,1.74c-0.43,0.06-0.87,0.08-1.38,0.13c0.03,0.27,0.05,0.49,0.08,0.77h16.59
			c0.43-1.58,0.86-3.15,1.3-4.77c-0.2-0.07-0.37-0.13-0.61-0.22c-0.2,0.44-0.38,0.84-0.57,1.23c-0.55,1.12-1.3,2.07-2.56,2.4
			c-2.09,0.54-4.23,0.5-6.35,0.22c-0.93-0.12-1.35-0.65-1.5-1.6c-0.07-0.49-0.14-0.98-0.14-1.48c-0.02-2.1-0.01-4.19-0.01-6.29
			c0-0.11,0.05-0.21,0.09-0.38c0.31,0,0.6,0,0.89,0c1.32,0.02,2.64,0.01,3.96,0.06c1.18,0.05,1.76,0.64,1.9,1.82
			c0.03,0.26,0.02,0.53,0.04,0.79c0.03,0.42,0.2,0.51,0.62,0.31v-7c-0.52-0.17-0.58,0.15-0.63,0.5c-0.18,1.43-1.01,2.18-2.45,2.2
			c-1.3,0.02-2.61,0-3.91,0c-0.15,0-0.31-0.06-0.41-0.08V7.85c1.19,0,2.3-0.03,3.4,0.01c0.84,0.03,1.68,0.1,2.5,0.26
			c1.28,0.25,2.14,1.06,2.57,2.3c0.15,0.43,0.25,0.88,0.37,1.32c0.48,0.09,0.62-0.14,0.62-0.55c0-1.16,0-2.31,0.01-3.47
			c0-0.24,0-0.48,0-0.82h-15.61v0.72c0.54,0.05,1.02,0.08,1.49,0.14c0.84,0.11,1.28,0.53,1.38,1.36c0.06,0.56,0.08,1.12,0.08,1.68
			c-0.01,2.69-0.03,5.38-0.04,8.08C369.92,21.06,369.91,23.24,369.89,25.42z M296.58,9.53c0.29-1.02,0.96-1.58,2.02-1.69
			c0.2-0.02,0.4-0.03,0.59-0.03c1.49-0.01,2.97-0.01,4.46-0.01c0.11,0,0.21,0.05,0.34,0.08c0.01,0.15,0.03,0.28,0.03,0.41
			c-0.02,5.8-0.05,11.59-0.08,17.39c0,0.28-0.03,0.56-0.08,0.84c-0.17,0.83-0.68,1.29-1.52,1.39c-0.41,0.05-0.81,0.06-1.32,0.1
			c0,0.23-0.06,0.46,0.02,0.61c0.06,0.11,0.3,0.18,0.46,0.18c2.61,0.03,5.22,0.04,7.83,0.06c0.18,0,0.35,0,0.59,0v-0.79
			c-0.42-0.04-0.79-0.06-1.16-0.11c-1.08-0.15-1.6-0.7-1.68-1.79c-0.01-0.18-0.01-0.36-0.01-0.54c0.03-5.8,0.06-11.59,0.09-17.39
			c0-0.12,0.04-0.25,0.06-0.35c0.09-0.03,0.14-0.06,0.19-0.06c1.72,0.01,3.44-0.02,5.15,0.04c1.28,0.04,1.87,0.68,1.97,1.96
			c0.02,0.27,0.04,0.55,0.06,0.87h0.75c0.05-0.08,0.08-0.11,0.08-0.14c0.1-1.51,0.21-3.03,0.3-4.54c0.01-0.13-0.09-0.26-0.16-0.44
			c-0.19,0.07-0.37,0.08-0.44,0.17c-0.64,0.84-1.56,0.83-2.47,0.83c-4.69-0.02-9.38-0.05-14.07-0.07c-0.88,0-1.7-0.08-2.2-0.96
			c-0.2,0.03-0.37,0.05-0.55,0.08c-0.13,1.69-0.25,3.32-0.38,5c0.29,0.02,0.5,0.03,0.79,0.05C296.36,10.25,296.48,9.89,296.58,9.53z
			"/>
	</g>
</g>
</svg>
